<?xml version="1.0" encoding="utf-8"?>
<!-- Generator: Adobe Illustrator 21.0.2, SVG Export Plug-In . SVG Version: 6.00 Build 0)  -->
<svg version="1.1" id="Layer_1" xmlns="http://www.w3.org/2000/svg" xmlns:xlink="http://www.w3.org/1999/xlink" x="0px" y="0px"
	 viewBox="0 0 56 56.2" style="enable-background:new 0 0 56 56.2;" xml:space="preserve">
<style type="text/css">
	.st0{fill:#FB3640;}
	.st1{fill:#F7FFF7;}
</style>
<path class="st0" d="M34.8,35.9h-8l-8.9-13.3c-0.2-0.3-0.5-0.4-0.8-0.4h-3c-0.3,0-0.6,0.2-0.8,0.4c-0.2,0.3-0.2,0.6-0.2,0.9L16.9,36
	H9.7l-2.9-3c-0.2-0.2-0.4-0.3-0.7-0.3H1c-0.4,0-0.8,0.2-0.9,0.6c-0.2,0.4-0.1,0.8,0.2,1.1l4.8,4.8L0.3,44c-0.3,0.3-0.4,0.7-0.2,1.1
	c0.1,0.4,0.5,0.6,0.9,0.6h5.1c0.3,0,0.5-0.1,0.7-0.3l2.9-3h7.2l-3.8,12.5c-0.1,0.3,0,0.6,0.2,0.9c0.2,0.3,0.5,0.4,0.8,0.4h3
	c0.3,0,0.6-0.2,0.8-0.4l8.9-13.3h8c1.8,0,3.2-1.4,3.2-3.2C38,37.3,36.5,35.9,34.8,35.9z M34.8,40.3h-8.5c-0.3,0-0.7,0.2-0.8,0.5
	l-9,13.3h-1.1l3.8-12.5c0.1-0.3,0-0.6-0.2-0.9s-0.5-0.4-0.8-0.4h-9c-0.3,0-0.5,0.1-0.7,0.3l-2.9,3H3.4l3.8-3.8
	c0.2-0.2,0.3-0.4,0.3-0.7s-0.1-0.5-0.3-0.7l-3.8-3.8h2.2l2.9,3c0.2,0.2,0.4,0.3,0.7,0.3h9c0.3,0,0.6-0.1,0.8-0.4
	c0.2-0.3,0.2-0.6,0.2-0.9l-3.8-12.5h1.1l9,13.3c0.2,0.3,0.5,0.4,0.8,0.4h8.5c0.7,0,1.2,0.5,1.2,1.2C36,39.7,35.4,40.3,34.8,40.3z"/>
<path class="st1" d="M50.9,17l4.8-4.8c0.3-0.3,0.4-0.7,0.2-1.1c-0.1-0.4-0.5-0.6-0.9-0.6h-5.1c-0.3,0-0.5,0.1-0.7,0.3l-2.9,3h-7.2
	l3.8-12.5c0.1-0.3,0-0.6-0.2-0.9S42.2,0,41.9,0h-3c-0.3,0-0.6,0.2-0.8,0.5l-8.9,13.3h-8c-1.8,0-3.2,1.4-3.2,3.2s1.4,3.2,3.2,3.2h8
	l8.9,13.3c0.2,0.3,0.5,0.4,0.8,0.4h3l0,0c0.5,0,1-0.4,1-1c0-0.2-0.1-0.3-0.1-0.5L39,20.1h7.2l2.9,3c0.2,0.2,0.4,0.3,0.7,0.3h5.1
	c0.4,0,0.8-0.3,0.9-0.6c0.2-0.4,0.1-0.8-0.2-1.1L50.9,17z M50.4,21.5l-2.9-3c-0.2-0.2-0.4-0.3-0.7-0.3h-9c-0.3,0-0.6,0.2-0.8,0.4
	c-0.2,0.3-0.2,0.6-0.2,0.9L40.6,32h-1.1l-9-13.3c-0.2-0.3-0.5-0.4-0.8-0.4h-8.5c-0.7,0-1.2-0.5-1.2-1.2s0.5-1.2,1.2-1.2h8.5
	c0.3,0,0.7-0.2,0.8-0.4l9-13.3h1.1l-3.8,12.5c-0.1,0.3,0,0.6,0.2,0.9s0.5,0.4,0.8,0.4h9c0.3,0,0.5-0.1,0.7-0.3l2.9-3h2.2l-3.8,3.8
	c-0.2,0.2-0.3,0.4-0.3,0.7s0.1,0.5,0.3,0.7l3.8,3.8h-2.2V21.5z"/>
</svg>
